<svg width="72" height="72" viewBox="0 0 72 72" fill="none" xmlns="http://www.w3.org/2000/svg">
<path d="M33.5751 47.271C33.5751 44.631 32.8851 42.417 31.5051 40.62C30.5271 39.384 29.2011 38.571 27.5241 38.184C25.8741 37.8 24.3141 37.773 22.9041 38.1C22.4241 35.25 23.2041 32.232 25.1841 29.034C27.1641 25.839 29.7291 23.433 32.8581 21.825L28.1151 15C25.7151 16.188 23.4351 17.694 21.3351 19.515C19.2051 21.336 17.3151 23.43 15.6351 25.797C13.9551 28.164 12.6951 30.837 11.8851 33.867C11.0751 36.897 10.8501 39.987 11.2371 43.167C11.7411 47.367 13.0971 50.727 15.3051 53.217C17.5101 55.74 20.2611 57 23.5491 57C26.4441 57 28.8471 56.13 30.7491 54.366C32.6331 52.638 33.5691 50.271 33.5691 47.262L33.5751 47.271ZM60.9471 47.271C60.9471 44.631 60.2571 42.417 58.8771 40.62C57.8991 39.36 56.5671 38.544 54.8961 38.169C53.2161 37.797 51.6771 37.779 50.2761 38.103C49.7961 35.283 50.5461 32.253 52.5321 29.043C54.5121 25.863 57.0711 23.463 60.2001 21.843L55.4691 15C53.0691 16.188 50.8041 17.694 48.6891 19.515C46.5397 21.363 44.6308 23.4735 43.0071 25.797C41.3391 28.167 40.0971 30.837 39.2871 33.867C38.4676 36.8952 38.2464 40.0542 38.6361 43.167C39.1341 47.367 40.4841 50.727 42.6861 53.217C44.8851 55.719 47.6271 56.973 50.9151 56.973C53.8161 56.973 56.2191 56.103 58.1211 54.342C60.0021 52.614 60.9471 50.247 60.9471 47.238V47.271Z" fill="#E9E9E9"/>
</svg>
