<svg width="148" height="8" viewBox="0 0 148 8" fill="none" xmlns="http://www.w3.org/2000/svg">
<path fill-rule="evenodd" clip-rule="evenodd" d="M147.942 2.54434C147.338 1.60124 142.149 1.20412 126.554 0.873212C112.002 0.558844 95.0622 -0.351151 65.4648 0.145219C42.8412 0.525769 14.6716 2.04799 14.6716 2.89181C14.6716 3.504 15.7699 3.52055 26.258 2.97454C35.9499 2.47817 40.9194 2.36235 46.9871 2.22999C22.6613 3.52055 17.4721 4.36435 4.51295 5.17508C-3.61397 5.688 1.13588 7.16058 4.10111 7.01167C4.12857 7.01167 41.9352 5.15854 45.5045 5.25781C45.8339 5.27436 42.2372 5.57218 37.4874 5.91964C24.2262 6.91238 26.7796 8.56693 36.7186 7.80583C70.1598 5.24125 101.624 4.44704 125.868 5.5556C133.528 5.90306 134.379 5.90306 134.379 5.47287C134.379 4.71177 132.292 4.13271 129.025 4.01689C123.918 3.81834 104.26 3.25577 95.3642 3.09031C94.6778 3.07377 95.0073 2.75945 95.6113 2.72636C99.2355 2.51126 128.009 2.67666 139.321 2.9083C147.64 3.07375 148.244 3.05726 147.942 2.54434Z" fill="#F7AF5A"/>
</svg>
